# xmcd
#
# Track frame offsets:
#	150
#	15675
#	28522
#	43334
#	59047
#	75834
#	97221
#	113524
#	127213
#	143583
#	163269
#	176904
#	194255
#
# Disc length: 2834 seconds
#
# Revision: 0
# Processed by: cddbd v1.5.2PL0 Copyright (c) Steve Scherf et al.
# Submitted via: audiograbber 1.83.01
#
DISCID=b70b100d
DTITLE=Trisha Yearwood - Thinkin' About You (International Version)
DYEAR=1995
DGENRE=Country
TTITLE0=Thinkin' About You
TTITLE1=XXX's And OOO's (An American Girl)
TTITLE2=You Can Sleep While I Drive
TTITLE3=The Restless Kind
TTITLE4=Two Days From Knowing
TTITLE5=On A Bus To St. Cloud
TTITLE6=Fairytale
TTITLE7=Those Words We Said
TTITLE8=O Mexico
TTITLE9=Jackie's House
TTITLE10=I Wanna Go Too Far
TTITLE11=Bartender Blues
TTITLE12=Till I Get It Right
EXTD=
EXTT0=
EXTT1=
EXTT2=
EXTT3=
EXTT4=
EXTT5=
EXTT6=
EXTT7=
EXTT8=
EXTT9=
EXTT10=
EXTT11=
EXTT12=
PLAYORDER=
